<svg width="21" height="21" viewBox="0 0 21 21" fill="none" xmlns="http://www.w3.org/2000/svg">
<path fill-rule="evenodd" clip-rule="evenodd" d="M2.66824 2.66824C4.37669 0.959795 6.69384 6.85297e-08 9.10995 0C10.3063 0 11.4909 0.235636 12.5962 0.693453C13.7014 1.15127 14.7057 1.8223 15.5517 2.66824C16.3976 3.51418 17.0686 4.51845 17.5264 5.62372C17.9843 6.72899 18.2199 7.91361 18.2199 9.10995C18.2199 10.3063 17.9843 11.4909 17.5264 12.5962C17.2075 13.3662 16.785 14.0872 16.272 14.7398L20.5695 19.0373C21.0185 19.4863 21.0185 20.2142 20.5695 20.6633C20.1205 21.1123 19.3925 21.1123 18.9435 20.6633L14.6341 16.3539C14.0097 16.8301 13.3249 17.2246 12.5962 17.5264C11.4909 17.9843 10.3063 18.2199 9.10995 18.2199C6.69384 18.2199 4.37669 17.2601 2.66824 15.5517C0.959795 13.8432 0 11.5261 0 9.10995C0 6.69384 0.959795 4.37669 2.66824 2.66824ZM9.10995 2.29948C7.3037 2.29948 5.57143 3.01701 4.29422 4.29422C3.01701 5.57143 2.29948 7.3037 2.29948 9.10995C2.29948 10.9162 3.01701 12.6485 4.29422 13.9257C5.57143 15.2029 7.3037 15.9204 9.10995 15.9204C10.0043 15.9204 10.8899 15.7443 11.7162 15.402C12.5425 15.0597 13.2933 14.5581 13.9257 13.9257C14.5581 13.2933 15.0597 12.5425 15.402 11.7162C15.7443 10.8899 15.9204 10.0043 15.9204 9.10995C15.9204 8.21558 15.7443 7.32998 15.402 6.50369C15.0597 5.67741 14.5581 4.92663 13.9257 4.29422C13.2933 3.66181 12.5425 3.16015 11.7162 2.81789C10.8899 2.47563 10.0043 2.29948 9.10995 2.29948Z" fill="white"/>
</svg>
