<svg width="22" height="21" viewBox="0 0 22 21" fill="none" xmlns="http://www.w3.org/2000/svg">
<path fill-rule="evenodd" clip-rule="evenodd" d="M11.3154 0.000673831C12.094 -0.0111216 12.8672 0.132047 13.5899 0.42185C14.3127 0.711654 14.9706 1.1423 15.5254 1.68874C16.0802 2.23518 16.5207 2.88649 16.8215 3.60478C17.1222 4.32308 17.277 5.094 17.277 5.8727C17.277 6.6514 17.1222 7.42232 16.8215 8.14062C16.5207 8.85891 16.0802 9.51022 15.5254 10.0567C14.9706 10.6031 14.3127 11.0337 13.5899 11.3235C12.8672 11.6134 12.094 11.7565 11.3154 11.7447C9.77344 11.7214 8.30255 11.0924 7.22039 9.99375C6.13823 8.89508 5.53165 7.41483 5.53165 5.8727C5.53165 4.33057 6.13823 2.85032 7.22039 1.75165C8.30255 0.652967 9.77344 0.0240334 11.3154 0.000673831ZM12.7741 2.45651C12.3211 2.27488 11.8366 2.18515 11.3486 2.19255C10.3822 2.20719 9.46037 2.60136 8.78215 3.28993C8.10393 3.9785 7.72377 4.90621 7.72377 5.8727C7.72377 6.83919 8.10393 7.7669 8.78215 8.45547C9.46037 9.14404 10.3822 9.53821 11.3486 9.55285C11.8366 9.56025 12.3211 9.47052 12.7741 9.28889C13.2271 9.10726 13.6394 8.83736 13.9871 8.4949C14.3348 8.15243 14.6109 7.74423 14.7994 7.29406C14.9879 6.84389 15.0849 6.36073 15.0849 5.8727C15.0849 5.38467 14.9879 4.90151 14.7994 4.45134C14.6109 4.00117 14.3348 3.59297 13.9871 3.2505C13.6394 2.90804 13.2271 2.63814 12.7741 2.45651ZM4.21636 16.2677C3.49139 17.1282 3.09837 18.3868 3.09837 19.9039C3.09837 20.5093 2.60765 21 2.00231 21C1.39697 21 0.90625 20.5093 0.90625 19.9039C0.90625 18.0397 1.3868 16.2239 2.53993 14.8553C3.71789 13.4571 5.48609 12.659 7.7676 12.659H14.8953C17.1772 12.659 18.9457 13.4571 20.1239 14.8552C21.2772 16.2239 21.7577 18.0397 21.7577 19.9039C21.7577 20.5093 21.267 21 20.6617 21C20.0563 21 19.5656 20.5093 19.5656 19.9039C19.5656 18.3868 19.1726 17.1282 18.4475 16.2678C17.7473 15.4368 16.6326 14.8511 14.8953 14.8511H7.7676C6.03094 14.8511 4.9165 15.4367 4.21636 16.2677Z" fill="white"/>
</svg>
